<svg version="1.1" id="Layer_1" xmlns="http://www.w3.org/2000/svg" xmlns:xlink="http://www.w3.org/1999/xlink" x="0px" y="0px"
	 width="100%" viewBox="0 0 500 500" enable-background="new 0 0 500 500" xml:space="preserve">
<path fill="#FFFFFF" opacity="1.000000" stroke="none" 
	d="
M291.000000,501.000000 
	C194.000031,501.000000 97.500046,501.000000 1.000052,501.000000 
	C1.000035,334.333405 1.000035,167.666794 1.000017,1.000141 
	C167.666565,1.000094 334.333130,1.000094 500.999756,1.000047 
	C500.999847,167.666519 500.999847,334.333038 500.999939,500.999786 
	C431.166656,501.000000 361.333344,501.000000 291.000000,501.000000 
M425.237915,269.634644 
	C435.154327,283.814423 445.781830,297.562683 454.739410,312.324280 
	C460.803711,322.317871 467.786560,326.951050 479.532410,325.228638 
	C483.774841,324.606537 485.067932,323.892792 485.043945,319.509796 
	C484.860809,286.034027 484.943604,252.556778 484.943665,219.079987 
	C484.943665,217.445251 484.943665,215.810532 484.943665,213.752121 
	C477.773071,213.752121 471.057892,213.752121 463.570892,213.752121 
	C463.570892,237.806870 463.570892,261.568756 463.570892,285.330658 
	C459.732819,281.618866 456.930786,277.728699 454.207062,273.784485 
	C442.771240,257.224426 431.358856,240.648209 420.026764,223.298080 
	C419.663147,222.024918 419.391846,220.716583 418.922180,219.483810 
	C410.522430,197.437225 402.010040,175.432907 393.750122,153.334198 
	C391.963989,148.555557 389.699432,144.554260 385.567688,141.313034 
	C363.213593,123.777161 341.038147,106.013680 318.743347,88.401848 
	C316.582886,86.695168 314.165344,84.587799 311.631348,84.197456 
	C294.761139,81.598808 277.836853,79.338097 260.905975,77.155334 
	C256.686737,76.611382 252.193329,75.891273 248.148483,76.757790 
	C238.591537,78.805153 229.200851,81.661400 219.792603,84.363564 
	C196.342346,91.098763 172.903259,97.874550 149.511398,104.808510 
	C147.134857,105.512970 144.491287,106.920181 143.014481,108.814346 
	C122.685486,134.888489 102.526878,161.095627 82.393074,187.321274 
	C81.548866,188.420914 81.039307,189.989960 80.909218,191.390045 
	C80.188477,199.147324 79.633675,206.920029 78.118904,214.601486 
	C67.453751,212.681595 56.844357,212.834137 46.632629,216.644714 
	C25.288273,224.609558 15.017785,241.056244 12.641052,262.906830 
	C9.441092,292.325775 27.254147,326.608459 68.570259,324.703522 
	C76.803299,324.323944 84.896843,320.918793 93.025017,319.646637 
	C99.314240,331.939697 105.597023,344.236053 111.908905,356.517487 
	C112.279793,357.239105 112.780533,357.966217 113.397049,358.478821 
	C130.248825,372.489502 145.343964,388.645874 164.399475,399.974426 
	C169.393326,402.943268 173.859848,406.804230 178.873962,409.732483 
	C183.655121,412.524750 188.606339,415.740875 193.883392,416.830322 
	C207.833282,419.710358 221.972565,421.737915 236.092667,423.700439 
	C242.902786,424.646973 250.335556,426.522430 256.635406,424.822906 
	C289.026672,416.084747 321.154144,406.364441 353.325867,396.825684 
	C355.548950,396.166504 357.864258,394.579437 359.313354,392.765991 
	C365.122162,385.496613 370.584381,377.951172 376.214630,370.538055 
	C390.393219,351.869843 404.647888,333.258759 418.698914,314.495087 
	C420.069641,312.664612 420.709259,309.969574 420.886017,307.615631 
	C421.768982,295.857483 422.342346,284.076355 423.161285,272.312805 
	C423.238831,271.198639 424.265747,270.150574 425.237915,269.634644 
z"/>
<path fill="#C0C0C0" opacity="1.000000" stroke="none" 
	d="
M79.022049,214.687439 
	C79.633675,206.920029 80.188477,199.147324 80.909218,191.390045 
	C81.039307,189.989960 81.548866,188.420914 82.393074,187.321274 
	C102.526878,161.095627 122.685486,134.888489 143.014481,108.814346 
	C144.491287,106.920181 147.134857,105.512970 149.511398,104.808510 
	C172.903259,97.874550 196.342346,91.098763 219.792603,84.363564 
	C229.200851,81.661400 238.591537,78.805153 248.148483,76.757790 
	C252.193329,75.891273 256.686737,76.611382 260.905975,77.155334 
	C277.836853,79.338097 294.761139,81.598808 311.631348,84.197456 
	C314.165344,84.587799 316.582886,86.695168 318.743347,88.401848 
	C341.038147,106.013680 363.213593,123.777161 385.567688,141.313034 
	C389.699432,144.554260 391.963989,148.555557 393.750122,153.334198 
	C402.010040,175.432907 410.522430,197.437225 418.922180,219.483810 
	C419.391846,220.716583 419.663147,222.024918 419.680267,223.542267 
	C417.529114,221.212921 415.724457,218.639404 414.223267,215.897720 
	C414.178284,214.161575 414.014740,212.523605 413.451813,211.036880 
	C409.400818,200.338379 405.255585,189.675613 401.166565,178.991440 
	C397.654724,169.815384 394.177795,160.625977 390.685394,151.442490 
	C390.289154,151.466660 389.892883,151.490829 389.496613,151.514999 
	C383.642822,173.122437 377.789001,194.729889 371.849548,216.653488 
	C378.477997,219.183990 384.649963,221.540222 390.878418,224.256424 
	C390.908569,225.099518 390.882233,225.582657 390.501282,225.978821 
	C384.250183,223.711121 378.353729,221.530396 371.962769,219.166779 
	C378.108551,251.517014 384.062073,282.855255 390.015594,314.193481 
	C390.323822,314.248413 390.632050,314.303345 390.940247,314.358276 
	C392.925751,308.988129 394.911255,303.617950 397.277893,298.174866 
	C398.158386,298.229004 398.657715,298.356079 399.147430,298.840729 
	C396.831726,304.954132 394.525696,310.709930 391.763153,317.605072 
	C400.978302,315.235138 409.126099,313.235565 417.185425,310.927155 
	C418.045166,310.680908 418.808228,308.661285 418.901031,307.411285 
	C419.416565,300.466370 419.585052,293.495422 420.116760,286.552063 
	C420.646851,279.629974 421.465210,272.729980 422.431946,265.966522 
	C423.421753,267.099121 424.136841,268.085480 424.851898,269.071838 
	C424.265747,270.150574 423.238831,271.198639 423.161285,272.312805 
	C422.342346,284.076355 421.768982,295.857483 420.886017,307.615631 
	C420.709259,309.969574 420.069641,312.664612 418.698914,314.495087 
	C404.647888,333.258759 390.393219,351.869843 376.214630,370.538055 
	C370.584381,377.951172 365.122162,385.496613 359.313354,392.765991 
	C357.864258,394.579437 355.548950,396.166504 353.325867,396.825684 
	C321.154144,406.364441 289.026672,416.084747 256.635406,424.822906 
	C250.335556,426.522430 242.902786,424.646973 236.092667,423.700439 
	C221.972565,421.737915 207.833282,419.710358 193.883392,416.830322 
	C188.606339,415.740875 183.655121,412.524750 178.873962,409.732483 
	C173.859848,406.804230 169.393326,402.943268 164.399475,399.974426 
	C145.343964,388.645874 130.248825,372.489502 113.397049,358.478821 
	C112.780533,357.966217 112.279793,357.239105 111.908905,356.517487 
	C105.597023,344.236053 99.314240,331.939697 93.139465,319.224243 
	C93.253914,318.801849 93.423187,318.952148 93.768730,319.013000 
	C95.002861,320.113617 95.891457,321.153351 96.857803,322.541443 
	C101.122025,330.980957 105.617073,338.930054 109.423164,347.196411 
	C115.249260,359.849823 126.377014,367.112854 136.802155,375.460693 
	C137.059860,375.952057 137.255096,376.204437 137.450317,376.456787 
	C137.344833,375.934692 137.239365,375.412567 137.059326,374.553436 
	C127.758568,361.716553 118.584885,349.177399 109.280891,336.735748 
	C105.454399,331.618805 101.347321,326.711700 97.288994,321.382568 
	C96.171654,320.053589 95.133194,319.051208 94.193352,317.778381 
	C95.001816,317.320312 95.711670,317.132660 96.775406,317.050476 
	C105.093185,327.803741 113.030731,338.471375 121.028267,349.093872 
	C129.311508,360.095795 137.652908,371.053894 145.984695,382.267395 
	C146.135223,382.770050 146.269928,383.036469 146.404648,383.302887 
	C146.283813,382.857788 146.162964,382.412689 146.082794,381.517792 
	C146.039368,378.916473 146.133652,376.740509 145.842865,374.617310 
	C143.582901,358.116791 141.248749,341.626465 139.292587,325.077362 
	C140.123825,325.069458 140.600021,325.117157 141.114944,325.560547 
	C142.772964,337.769318 144.391327,349.582550 146.011826,361.395508 
	C147.129333,369.541656 148.249802,377.687378 149.471100,386.576843 
	C173.514328,379.827179 196.955566,373.246521 221.462418,366.366699 
	C214.194244,362.285797 207.990143,358.801331 201.785126,355.318481 
	C183.238937,344.908752 164.692383,334.499664 146.203568,323.745880 
	C146.381149,323.202026 146.501144,323.002563 146.958466,322.818573 
	C148.207733,323.226868 149.162857,323.542297 150.025223,324.023865 
	C168.575562,334.382263 187.109726,344.769653 205.661102,355.126160 
	C210.909561,358.056152 216.202545,360.906403 222.612839,364.416168 
	C221.416031,357.662598 220.465332,352.319824 219.522949,346.975555 
	C217.340927,334.600983 215.162933,322.225739 212.989319,309.616089 
	C213.160019,309.064636 213.420212,308.921722 214.093933,309.185486 
	C217.922195,327.594604 221.432465,345.770935 225.102234,364.773163 
	C236.891708,355.735168 247.586151,347.615845 258.188477,339.377930 
	C264.183319,334.720032 270.026794,329.867279 276.335175,325.041809 
	C277.525116,325.082611 278.318359,325.183899 279.022522,325.600037 
	C262.042664,338.986023 245.151825,352.057190 227.035004,366.077057 
	C256.499268,370.363251 284.504883,374.437225 313.036011,378.587677 
	C313.036011,375.478271 313.136749,373.667786 313.020203,371.871399 
	C312.010254,356.301392 310.961243,340.733948 310.279633,325.112793 
	C311.111969,325.085785 311.588531,325.111664 312.038635,325.577087 
	C313.169281,342.831238 314.326324,359.645844 315.558807,377.556671 
	C318.116211,375.634491 319.823334,374.427795 321.447693,373.118500 
	C334.902405,362.273651 348.380890,351.457764 361.768311,340.530334 
	C367.920319,335.508820 373.884460,330.257172 380.309692,325.054443 
	C381.170593,325.130005 381.655579,325.261017 382.111633,325.722290 
	C381.072357,327.139130 380.175140,328.365021 379.034546,329.291107 
	C364.349854,341.214264 349.630310,353.094482 334.920013,364.986115 
	C329.069214,369.715851 323.219543,374.446960 316.902130,379.555267 
	C329.103790,383.934631 340.554077,387.887146 351.867462,392.198883 
	C355.348969,393.525696 356.562622,392.234161 357.817261,389.350037 
	C367.154205,367.886627 376.593781,346.467865 386.082825,324.632965 
	C385.671631,321.927246 385.178711,319.623657 385.108368,317.234436 
	C389.622711,316.643677 387.815430,313.890869 387.437531,311.861481 
	C382.953033,287.779938 378.438416,263.703918 373.872406,239.637680 
	C372.718353,233.555069 371.354675,227.512253 369.898895,220.550125 
	C364.373932,227.629227 359.523071,233.844543 354.439941,239.867859 
	C353.834961,238.769562 353.462311,237.863281 353.440002,236.986328 
	C358.655304,231.135910 363.520203,225.256165 369.258453,218.320923 
	C360.129333,217.466599 352.631256,216.764923 344.987183,215.794647 
	C344.794159,215.125183 344.747101,214.724304 345.151917,214.206116 
	C352.798523,214.696716 359.993256,215.304626 368.250336,216.002319 
	C347.819092,187.264236 327.940125,159.302963 307.615448,130.714752 
	C299.923187,157.070404 292.565918,182.278305 285.091003,207.889206 
	C300.450348,209.341248 314.963959,210.651443 329.460999,212.125122 
	C333.339142,212.519348 337.166534,213.412903 341.017365,214.348145 
	C340.935089,214.779816 340.852631,214.940521 340.328308,215.109558 
	C321.838043,213.447327 303.789642,211.776810 285.528320,210.086563 
	C285.721954,211.454391 285.836823,212.265533 285.577789,213.166229 
	C282.802490,213.075333 280.401031,212.894867 278.007385,212.385986 
	C278.969574,210.979919 279.923950,209.902267 281.261169,208.392303 
	C256.342010,192.123123 231.687988,176.027039 206.101746,159.322327 
	C206.101746,177.494156 206.101746,194.383743 206.101746,211.273331 
	C205.582016,211.285645 205.062302,211.297958 204.542572,211.310287 
	C203.263718,194.499481 204.635239,177.574097 203.785355,160.212875 
	C202.446304,160.941284 201.548477,161.311539 200.781982,161.863998 
	C182.977173,174.696808 165.151001,187.500565 147.414261,200.426956 
	C141.818375,204.505188 136.468948,208.921600 130.816162,213.368790 
	C130.089371,213.272369 129.553146,212.990387 128.987213,212.374603 
	C129.729691,211.194351 130.382538,210.182785 131.291641,209.525787 
	C150.277802,195.804749 169.298615,182.131683 188.298309,168.429352 
	C192.910355,165.103180 197.471573,161.706558 202.830719,157.773941 
	C181.737900,150.720779 161.764206,144.041656 141.790359,137.363022 
	C138.588333,136.292358 138.322037,138.484253 137.761978,140.750107 
	C132.865524,160.560013 127.880882,180.348099 122.939247,200.146881 
	C121.521286,205.827957 120.158226,211.522751 118.551666,218.105881 
	C121.331596,216.683533 123.063110,215.797623 124.860245,215.269745 
	C124.903816,216.111038 124.881767,216.594299 124.551025,217.183121 
	C122.534027,218.614075 120.825714,219.939468 118.322754,221.881378 
	C121.255882,222.806198 123.078651,223.380920 124.956192,224.316269 
	C124.922050,225.153458 124.833130,225.630020 124.385834,226.100418 
	C122.425331,225.650040 120.823181,225.205826 119.102432,224.618683 
	C118.841103,224.459610 118.698372,224.443497 118.555649,224.427368 
	C118.639893,224.676224 118.724144,224.925095 118.830017,225.583923 
	C119.106903,227.461182 119.306137,228.940811 119.626549,230.393723 
	C121.731812,239.940033 123.863205,249.480560 125.763321,259.086395 
	C125.540565,259.149811 125.095383,259.021820 124.768356,258.834442 
	C121.764717,247.886520 119.088104,237.125992 116.250977,225.720184 
	C114.077499,229.750183 112.375183,232.906555 110.453033,235.996811 
	C109.979752,235.699280 109.898575,235.418152 110.006874,234.716095 
	C112.023689,228.710983 117.148781,223.431534 112.328461,217.013885 
	C113.644371,217.556808 114.624535,218.071945 116.111824,218.853622 
	C122.584984,192.604599 128.965637,166.730682 135.346298,140.856766 
	C135.001312,140.721039 134.656326,140.585297 134.311340,140.449570 
	C124.596764,149.670609 114.882195,158.891647 104.921188,167.988037 
	C104.452690,167.580154 104.230629,167.296936 104.161835,166.719345 
	C113.950844,157.047546 123.489189,147.567169 133.255997,138.328293 
	C139.953125,131.993179 139.433563,123.337196 141.528336,115.421333 
	C140.492264,115.710320 139.925491,116.228394 139.462234,116.826607 
	C126.672050,133.342880 113.875168,149.854080 101.156029,166.424942 
	C100.433563,167.366196 100.362534,168.807465 99.998840,170.010529 
	C100.009361,170.005035 100.011948,169.980896 99.665649,169.950256 
	C98.873055,170.618240 98.426750,171.316833 97.994568,172.012085 
	C98.008682,172.008728 98.015007,171.980392 97.703560,171.961273 
	C96.890274,172.291595 96.388435,172.641022 95.601654,173.157501 
	C94.671165,175.294769 94.025627,177.264984 93.185852,179.512238 
	C89.941017,183.198135 86.890427,186.606995 84.394386,189.396164 
	C90.155205,195.500610 95.584702,201.253983 100.653122,207.090790 
	C94.666824,202.666412 89.041595,198.158569 82.682213,193.062408 
	C82.682213,201.120163 82.682213,208.217316 82.367683,215.324692 
	C81.042786,215.119095 80.032417,214.903275 79.022049,214.687439 
M159.845078,393.476105 
	C159.451431,393.501129 159.057770,393.526154 158.664124,393.551178 
	C159.090775,393.719818 159.517426,393.888428 160.267044,394.650085 
	C174.333984,402.954651 185.822845,415.904968 203.964127,416.769012 
	C214.518311,417.271698 224.972488,419.874146 235.471664,421.531799 
	C234.527863,420.037384 233.312073,419.361969 232.020401,418.897736 
	C213.569366,412.266479 195.126602,405.611298 176.637787,399.086823 
	C171.185074,397.162628 165.595123,395.627380 159.845078,393.476105 
M383.169189,143.553421 
	C383.576172,143.513962 383.983124,143.474503 384.390106,143.435028 
	C383.976685,143.235947 383.563263,143.036850 382.810974,142.257690 
	C382.217712,141.673965 381.672150,141.030228 381.024261,140.515289 
	C363.981079,126.970024 346.933167,113.430748 329.871796,99.908417 
	C324.861267,95.937241 319.807495,92.020622 314.077423,87.533936 
	C312.128723,101.509514 310.332977,114.388069 308.509399,127.466209 
	C323.664764,130.773026 337.893829,133.941757 352.153259,136.967438 
	C362.367798,139.134872 372.622955,141.110779 383.169189,143.553421 
M215.505905,163.006653 
	C237.844315,177.555450 260.182709,192.104263 283.035034,206.987778 
	C290.581329,181.180405 297.917419,156.091873 305.568024,129.927872 
	C272.733215,139.314575 240.969101,148.395187 207.893646,157.850693 
	C210.935623,159.898682 212.927704,161.239822 215.505905,163.006653 
M260.829742,140.299469 
	C274.797058,136.347061 288.764404,132.394653 302.731720,128.442245 
	C302.722595,128.041367 302.713470,127.640472 302.704346,127.239578 
	C275.623962,113.933311 248.543564,100.627037 220.861328,87.025040 
	C216.092026,110.154732 211.459473,132.621201 206.649796,155.946625 
	C225.072983,150.655289 242.574783,145.628586 260.829742,140.299469 
M356.414795,140.042923 
	C341.719452,136.916565 327.024109,133.790192 312.328735,130.663834 
	C312.039307,131.269012 311.749878,131.874191 311.460449,132.479370 
	C330.742584,159.596130 350.024719,186.712906 369.623779,214.275375 
	C370.318115,213.045593 370.758484,212.531403 370.920197,211.940887 
	C376.535461,191.436493 382.113434,170.921890 387.728027,150.417297 
	C388.656281,147.027298 386.472992,146.528885 383.998016,146.004044 
	C375.070557,144.110886 366.160431,142.135880 356.414795,140.042923 
M214.798386,106.198250 
	C215.899490,100.387283 217.000580,94.576309 218.304764,87.693596 
	C192.054947,103.569115 166.751572,118.872231 140.535248,134.727493 
	C162.604782,142.075073 183.460144,149.018417 204.461700,156.010422 
	C207.925903,139.167557 211.232819,123.089432 214.798386,106.198250 
M239.253525,419.241058 
	C242.624313,420.427063 245.995102,421.613037 250.479141,423.190735 
	C241.231628,404.147522 232.491348,386.148804 223.674515,367.992462 
	C199.992523,374.669250 176.762283,381.218689 152.137497,388.161285 
	C181.933578,398.805847 210.217911,408.910339 239.253525,419.241058 
M308.586243,383.034760 
	C309.281891,382.289703 309.977539,381.544647 310.976135,380.475067 
	C282.472961,376.307312 254.612991,372.233612 226.046387,368.056580 
	C235.217163,386.886932 243.995010,404.910492 253.066376,423.536713 
	C271.842346,409.868042 289.946442,396.688507 308.586243,383.034760 
M251.650711,99.863411 
	C269.766022,108.717766 287.881348,117.572113 306.451843,126.648941 
	C308.424316,112.580490 310.245178,99.593605 312.109619,86.295738 
	C282.820374,86.295738 254.453751,86.295738 226.087143,86.295738 
	C225.991348,86.521248 225.895554,86.746758 225.799759,86.972267 
	C234.195374,91.156128 242.590973,95.339989 251.650711,99.863411 
M321.840729,383.745026 
	C317.390625,380.866974 313.632111,381.426666 309.399353,384.883942 
	C301.940918,390.975922 293.967468,396.440155 286.175201,402.119904 
	C277.902863,408.149536 269.590485,414.124237 261.295593,420.122894 
	C261.490479,420.536194 261.685394,420.949493 261.880280,421.362793 
	C291.723419,412.646332 321.566528,403.929840 351.409668,395.213379 
	C351.353394,394.838531 351.297119,394.463684 351.240845,394.088837 
	C341.689758,390.711060 332.138702,387.333313 321.840729,383.745026 
M414.021027,314.029236 
	C407.594391,315.682831 401.088409,317.090576 394.784760,319.125183 
	C392.618164,319.824493 390.135956,321.704132 389.198029,323.701874 
	C383.053619,336.789215 377.271240,350.047089 371.416534,363.269562 
	C368.741669,369.310608 366.171356,375.397888 363.553589,381.464203 
	C364.057495,381.849304 364.561432,382.234406 365.065338,382.619537 
	C365.752167,381.489838 366.345825,380.289673 367.139526,379.240936 
	C382.781006,358.573914 398.458435,337.934052 414.056854,317.234650 
	C414.649109,316.448730 414.523560,315.121918 414.021027,314.029236 
M154.803619,105.193176 
	C151.970367,106.369797 147.390289,106.863991 146.616333,108.845108 
	C143.771851,116.126228 142.190430,123.900787 139.797333,132.730942 
	C162.908829,118.743309 184.870880,105.451347 206.832932,92.159386 
	C206.607834,91.689445 206.382736,91.219505 206.157639,90.749565 
	C189.303482,95.511726 172.449310,100.273888 154.803619,105.193176 
M264.500000,84.862083 
	C274.952881,84.862083 285.405792,84.862083 295.858673,84.862083 
	C295.348328,84.295326 294.772430,84.069138 294.176544,83.985641 
	C281.749481,82.244370 269.278412,80.769814 256.904419,78.711594 
	C247.031570,77.069412 238.933502,82.165390 230.152267,84.861763 
	C241.268173,84.861763 252.384094,84.861763 264.500000,84.862083 
M209.385391,90.527641 
	C209.117233,90.466576 208.849091,90.405502 208.580933,90.344444 
	C208.748856,90.491714 208.916779,90.638985 209.385391,90.527641 
M310.367188,130.504196 
	C310.367188,130.504196 310.622864,130.637543 310.622864,130.637543 
	C310.622864,130.637543 310.578735,130.376007 310.367188,130.504196 
M142.653015,113.544685 
	C142.653015,113.544685 142.414658,113.410385 142.414658,113.410385 
	C142.414658,113.410385 142.457199,113.720299 142.653015,113.544685 
z"/>
<path fill="#424243" opacity="1.000000" stroke="none" 
	d="
M399.157074,298.483124 
	C398.657715,298.356079 398.158386,298.229004 396.834412,298.127502 
	C394.429657,298.153076 392.849518,298.153076 390.855927,298.153076 
	C390.855927,273.739441 390.855927,249.902603 390.855927,226.065781 
	C390.882233,225.582657 390.908569,225.099518 390.951294,223.814651 
	C390.967682,220.059326 390.967682,217.105743 390.967682,213.376877 
	C397.779022,213.376877 404.177582,213.245239 410.560944,213.497986 
	C411.712646,213.543579 412.801788,215.169556 413.919800,216.065903 
	C415.724457,218.639404 417.529114,221.212921 419.635803,223.932159 
	C431.358856,240.648209 442.771240,257.224426 454.207062,273.784485 
	C456.930786,277.728699 459.732819,281.618866 463.570892,285.330658 
	C463.570892,261.568756 463.570892,237.806870 463.570892,213.752121 
	C471.057892,213.752121 477.773071,213.752121 484.943665,213.752121 
	C484.943665,215.810532 484.943665,217.445251 484.943665,219.079987 
	C484.943604,252.556778 484.860809,286.034027 485.043945,319.509796 
	C485.067932,323.892792 483.774841,324.606537 479.532410,325.228638 
	C467.786560,326.951050 460.803711,322.317871 454.739410,312.324280 
	C445.781830,297.562683 435.154327,283.814423 425.044922,269.353241 
	C424.136841,268.085480 423.421753,267.099121 422.347351,265.640564 
	C420.610840,263.135223 419.233673,261.102112 417.759766,258.742249 
	C416.104065,256.297516 414.545105,254.179535 412.986145,252.061539 
	C412.562531,252.232651 412.138916,252.403763 411.715302,252.574875 
	C412.095612,257.056610 412.475952,261.538330 412.767059,266.424042 
	C412.677856,277.187744 412.677856,287.547516 412.677856,297.878693 
	C407.395050,298.114868 403.276062,298.298981 399.157074,298.483124 
z"/>
<path fill="#424243" opacity="1.000000" stroke="none" 
	d="
M109.989670,235.087280 
	C109.898575,235.418152 109.979752,235.699280 110.533783,236.356888 
	C112.212051,239.608109 113.811340,242.348160 114.932121,245.271652 
	C123.358498,267.251373 120.552475,287.827667 106.728996,307.127380 
	C105.982513,307.839325 105.495049,308.422333 104.723564,309.177490 
	C101.766876,311.881439 99.094200,314.413208 96.421524,316.945007 
	C95.711670,317.132660 95.001816,317.320312 93.961395,317.956604 
	C93.561607,318.587524 93.492393,318.769836 93.423187,318.952148 
	C93.423187,318.952148 93.253914,318.801849 93.154312,318.855316 
	C84.896843,320.918793 76.803299,324.323944 68.570259,324.703522 
	C27.254147,326.608459 9.441092,292.325775 12.641052,262.906830 
	C15.017785,241.056244 25.288273,224.609558 46.632629,216.644714 
	C56.844357,212.834137 67.453751,212.681595 78.570480,214.644470 
	C80.032417,214.903275 81.042786,215.119095 82.627304,215.573914 
	C94.368248,219.128113 102.781601,226.270111 109.989670,235.087280 
M81.011993,236.975250 
	C81.011993,236.975250 81.100067,236.861069 80.783821,236.297058 
	C79.953377,236.084671 79.122932,235.872284 77.726837,235.155106 
	C65.381126,231.086716 53.906422,232.498352 44.238155,241.539078 
	C29.722120,255.112915 29.713289,282.907745 43.898960,296.806580 
	C54.181683,306.881378 73.116928,308.450134 83.853149,300.057343 
	C84.583237,299.467926 85.313332,298.878510 86.700409,298.063721 
	C95.377007,290.350525 98.557587,280.354950 98.935287,268.395203 
	C98.594711,267.267578 98.254135,266.139954 98.050354,264.173309 
	C97.184769,253.576721 92.994888,244.808609 83.753563,238.145523 
	C82.876236,237.723541 81.998901,237.301559 81.011993,236.975250 
z"/>
<path fill="#FEFEFE" opacity="1.000000" stroke="none" 
	d="
M131.006729,213.183228 
	C136.468948,208.921600 141.818375,204.505188 147.414261,200.426956 
	C165.151001,187.500565 182.977173,174.696808 200.781982,161.863998 
	C201.548477,161.311539 202.446304,160.941284 203.785355,160.212875 
	C204.635239,177.574097 203.263718,194.499481 204.542572,211.310287 
	C205.062302,211.297958 205.582016,211.285645 206.101746,211.273331 
	C206.101746,194.383743 206.101746,177.494156 206.101746,159.322327 
	C231.687988,176.027039 256.342010,192.123123 281.261169,208.392303 
	C279.923950,209.902267 278.969574,210.979919 277.578918,212.507690 
	C271.149231,212.639206 266.377625,214.407471 263.169037,219.985275 
	C261.647247,222.630707 259.093903,224.682724 256.657104,227.023453 
	C246.363647,234.001495 236.421036,240.959671 226.386169,247.463562 
	C226.293900,235.954163 226.293900,224.899048 226.293900,213.680115 
	C218.662506,213.680115 211.929504,213.680115 204.690231,213.680115 
	C204.690231,230.311798 204.690231,246.595810 204.334412,262.882721 
	C201.915878,262.310638 199.853180,261.735626 197.788803,260.743591 
	C205.982697,232.534485 192.518555,214.071823 163.399567,213.375275 
	C152.606598,213.117111 141.804611,213.236191 131.006729,213.183228 
z"/>
<path fill="#424243" opacity="1.000000" stroke="none" 
	d="
M130.816162,213.368790 
	C141.804611,213.236191 152.606598,213.117111 163.399567,213.375275 
	C192.518555,214.071823 205.982697,232.534485 197.794113,260.828003 
	C197.801117,261.329376 197.943192,261.423462 197.621704,261.601715 
	C193.174957,268.623535 187.564972,273.786438 179.695694,276.516357 
	C180.680313,278.657410 181.431564,280.291016 182.242950,282.208618 
	C182.634766,282.659119 182.966431,282.825562 183.290039,283.351074 
	C189.319901,297.214539 195.357803,310.718933 201.743652,325.001495 
	C194.839539,325.001495 188.902130,324.806702 182.986252,325.079254 
	C179.768509,325.227509 178.287796,323.913361 177.075195,321.141693 
	C173.826248,313.715332 170.308578,306.406494 166.874649,298.727539 
	C166.448761,297.897430 166.045868,297.390747 165.616486,296.546112 
	C164.577789,293.930847 163.592117,291.641357 162.548767,289.378448 
	C158.029236,279.575928 158.022980,279.575470 147.323196,280.094116 
	C147.043472,280.107697 146.776688,280.387817 146.211624,280.710541 
	C146.211624,290.665894 146.211624,300.789948 146.130264,311.315918 
	C146.170425,312.527405 146.291946,313.337036 146.308258,314.571472 
	C146.342422,317.598572 146.481766,320.200836 146.621124,322.803101 
	C146.501144,323.002563 146.381149,323.202026 145.919983,323.998810 
	C144.077942,324.785706 142.577072,324.975281 141.076202,325.164856 
	C140.600021,325.117157 140.123825,325.069458 138.834625,325.019287 
	C137.204361,325.011749 136.387146,325.003052 135.569916,325.002197 
	C125.357986,324.991608 125.357986,324.991852 124.884087,314.720764 
	C124.907265,313.886719 124.880455,313.409119 124.919868,312.471375 
	C125.022522,294.348083 125.058952,276.684937 125.095383,259.021820 
	C125.095383,259.021820 125.540565,259.149811 126.216988,259.219849 
	C139.801651,259.259491 152.712875,259.379456 165.616669,259.123779 
	C170.707657,259.022888 175.502640,257.622711 177.721420,251.841248 
	C178.151825,251.070602 178.379227,250.456879 178.719666,249.438599 
	C179.208298,239.813858 174.928284,234.581345 165.770187,233.998367 
	C158.869995,233.559097 151.920944,233.887299 144.734344,233.676727 
	C142.981583,233.640457 141.488129,233.801346 139.532166,233.895386 
	C134.538269,233.828568 130.006866,233.828568 125.277237,233.828568 
	C125.074951,230.898117 124.909576,228.502350 124.744202,226.106583 
	C124.833130,225.630020 124.922050,225.153458 125.005692,223.888031 
	C124.953514,221.091949 124.906616,219.084763 124.859726,217.077560 
	C124.881767,216.594299 124.903816,216.111038 125.032715,214.959198 
	C126.432022,213.763214 127.724480,213.235794 129.016937,212.708405 
	C129.553146,212.990387 130.089371,213.272369 130.816162,213.368790 
z"/>
<path fill="#424243" opacity="1.000000" stroke="none" 
	d="
M257.007935,227.003586 
	C259.093903,224.682724 261.647247,222.630707 263.169037,219.985275 
	C266.377625,214.407471 271.149231,212.639206 277.571106,212.836121 
	C280.401031,212.894867 282.802490,213.075333 285.992004,213.271912 
	C289.129974,213.448380 291.479828,213.608719 294.627258,213.823471 
	C292.256012,217.019073 290.504242,219.379868 288.474915,221.887985 
	C287.462585,223.021393 286.727753,224.007507 285.752258,225.223938 
	C273.463531,240.308258 261.415466,255.162231 249.147324,270.287506 
	C253.497192,275.155457 257.581909,279.726654 261.758728,284.589722 
	C262.541595,285.589294 263.232330,286.296967 263.983795,287.283173 
	C264.359497,287.733490 264.674500,287.905273 264.965210,288.035553 
	C264.940918,287.994049 264.857758,288.042328 264.940918,288.375183 
	C270.503113,295.180908 275.915588,301.711823 281.489960,308.101501 
	C284.185181,311.190979 287.184570,314.015106 289.980103,317.317505 
	C291.390045,319.831116 292.866180,321.986572 295.125183,325.285187 
	C288.836090,325.285187 283.973816,325.285187 279.111572,325.285187 
	C278.318359,325.183899 277.525116,325.082611 275.899689,324.997681 
	C269.659424,326.079895 266.284210,323.518707 263.082764,319.329071 
	C255.436783,309.323059 247.335159,299.665039 239.409500,289.873016 
	C237.998932,288.130280 236.549728,286.418823 234.748581,284.247040 
	C227.460892,292.831879 220.618408,300.892303 213.775909,308.952728 
	C213.420212,308.921722 213.160019,309.064636 212.664795,309.726746 
	C210.121811,312.442749 207.909363,314.813477 204.902069,318.035889 
	C204.902069,300.670227 204.902069,284.357025 204.958832,267.614044 
	C204.907135,265.749481 204.798691,264.314636 204.690231,262.879822 
	C204.690231,246.595810 204.690231,230.311798 204.690231,213.680115 
	C211.929504,213.680115 218.662506,213.680115 226.293900,213.680115 
	C226.293900,224.899048 226.293900,235.954163 226.321075,247.933289 
	C226.348267,253.989578 226.348267,259.121857 226.348267,264.254150 
	C226.721237,264.365265 227.094208,264.476410 227.467163,264.587555 
	C237.314087,252.059570 247.161011,239.531570 257.007935,227.003586 
z"/>
<path fill="#424243" opacity="1.000000" stroke="none" 
	d="
M344.700012,214.323441 
	C344.747101,214.724304 344.794159,215.125183 345.004608,216.155670 
	C347.808533,223.509186 350.449097,230.233093 353.089661,236.957001 
	C353.462311,237.863281 353.834961,238.769562 354.487213,240.252838 
	C358.187805,249.830597 361.527069,258.863464 365.047577,267.825165 
	C371.537476,284.345520 378.133789,300.824097 384.685791,317.320068 
	C385.178711,319.623657 385.671631,321.927246 385.693695,324.615967 
	C384.195404,325.131378 383.167999,325.261688 382.140564,325.391998 
	C381.655579,325.261017 381.170593,325.130005 379.850037,325.008118 
	C378.684052,325.013428 378.342896,324.953400 378.024811,325.014099 
	C368.840149,326.767212 362.495178,324.133942 360.977020,313.687347 
	C360.646698,312.574280 360.319122,311.785309 359.957733,310.621887 
	C354.339050,294.537109 348.754181,278.826721 342.689087,261.765381 
	C337.501862,277.123413 332.802307,291.037476 327.960022,305.174805 
	C327.699829,305.727509 327.582397,306.056976 327.284363,306.712463 
	C326.008118,310.160583 324.911224,313.282257 323.817078,316.404907 
	C320.887421,324.765991 320.887909,324.766144 312.065094,325.137573 
	C311.588531,325.111664 311.111969,325.085785 309.832581,325.041565 
	C305.807373,325.023254 302.584961,325.023254 298.944580,325.023254 
	C300.867035,318.917419 302.550476,313.570679 304.209320,308.173920 
	C304.184723,308.123871 304.072357,308.135132 304.411621,308.222443 
	C304.924042,307.882324 305.097168,307.454895 305.532898,306.835510 
	C306.116028,305.393280 306.436584,304.142975 306.854828,302.678589 
	C306.952515,302.464539 306.943451,301.993988 307.204132,301.775574 
	C308.237793,299.657410 309.010773,297.757629 309.903900,295.509094 
	C311.595673,291.160126 313.196960,287.171265 314.734039,283.157837 
	C323.421265,260.475586 332.093109,237.787399 340.770203,215.101242 
	C340.852631,214.940521 340.935089,214.779816 341.389191,214.214783 
	C342.740570,213.981461 343.720306,214.152451 344.700012,214.323441 
z"/>
<path fill="#FEFEFE" opacity="1.000000" stroke="none" 
	d="
M215.212860,162.793823 
	C212.927704,161.239822 210.935623,159.898682 207.893646,157.850693 
	C240.969101,148.395187 272.733215,139.314575 305.568024,129.927872 
	C297.917419,156.091873 290.581329,181.180405 283.035034,206.987778 
	C260.182709,192.104263 237.844315,177.555450 215.212860,162.793823 
z"/>
<path fill="#FEFEFE" opacity="1.000000" stroke="none" 
	d="
M345.151917,214.206116 
	C343.720306,214.152451 342.740570,213.981461 341.389038,213.943848 
	C337.166534,213.412903 333.339142,212.519348 329.460999,212.125122 
	C314.963959,210.651443 300.450348,209.341248 285.091003,207.889206 
	C292.565918,182.278305 299.923187,157.070404 307.615448,130.714752 
	C327.940125,159.302963 347.819092,187.264236 368.250336,216.002319 
	C359.993256,215.304626 352.798523,214.696716 345.151917,214.206116 
z"/>
<path fill="#FEFEFE" opacity="1.000000" stroke="none" 
	d="
M260.453156,140.450684 
	C242.574783,145.628586 225.072983,150.655289 206.649796,155.946625 
	C211.459473,132.621201 216.092026,110.154732 220.861328,87.025040 
	C248.543564,100.627037 275.623962,113.933311 302.704346,127.239578 
	C302.713470,127.640472 302.722595,128.041367 302.731720,128.442245 
	C288.764404,132.394653 274.797058,136.347061 260.453156,140.450684 
z"/>
<path fill="#FEFEFE" opacity="1.000000" stroke="none" 
	d="
M304.233917,308.223969 
	C302.550476,313.570679 300.867035,318.917419 298.944580,325.023254 
	C302.584961,325.023254 305.807373,325.023254 309.476807,325.094482 
	C310.961243,340.733948 312.010254,356.301392 313.020203,371.871399 
	C313.136749,373.667786 313.036011,375.478271 313.036011,378.587677 
	C284.504883,374.437225 256.499268,370.363251 227.035004,366.077057 
	C245.151825,352.057190 262.042664,338.986023 279.022522,325.600037 
	C283.973816,325.285187 288.836090,325.285187 295.125183,325.285187 
	C292.866180,321.986572 291.390045,319.831116 289.966248,317.323547 
	C290.018524,316.971375 290.016632,316.993469 290.362000,316.964783 
	C295.216248,314.032074 299.725067,311.128021 304.233917,308.223969 
z"/>
<path fill="#FEFEFE" opacity="1.000000" stroke="none" 
	d="
M128.987213,212.374588 
	C127.724480,213.235794 126.432022,213.763214 124.967102,214.601166 
	C123.063110,215.797623 121.331596,216.683533 118.551666,218.105881 
	C120.158226,211.522751 121.521286,205.827957 122.939247,200.146881 
	C127.880882,180.348099 132.865524,160.560013 137.761978,140.750107 
	C138.322037,138.484253 138.588333,136.292358 141.790359,137.363022 
	C161.764206,144.041656 181.737900,150.720779 202.830719,157.773941 
	C197.471573,161.706558 192.910355,165.103180 188.298309,168.429352 
	C169.298615,182.131683 150.277802,195.804749 131.291641,209.525787 
	C130.382538,210.182785 129.729691,211.194351 128.987213,212.374588 
z"/>
<path fill="#FEFEFE" opacity="1.000000" stroke="none" 
	d="
M356.829285,140.117355 
	C366.160431,142.135880 375.070557,144.110886 383.998016,146.004044 
	C386.472992,146.528885 388.656281,147.027298 387.728027,150.417297 
	C382.113434,170.921890 376.535461,191.436493 370.920197,211.940887 
	C370.758484,212.531403 370.318115,213.045593 369.623779,214.275375 
	C350.024719,186.712906 330.742584,159.596130 311.460449,132.479370 
	C311.749878,131.874191 312.039307,131.269012 312.328735,130.663834 
	C327.024109,133.790192 341.719452,136.916565 356.829285,140.117355 
z"/>
<path fill="#FEFEFE" opacity="1.000000" stroke="none" 
	d="
M204.902069,268.043793 
	C204.902069,284.357025 204.902069,300.670227 204.902069,318.035889 
	C207.909363,314.813477 210.121811,312.442749 212.658783,309.961426 
	C215.162933,322.225739 217.340927,334.600983 219.522949,346.975555 
	C220.465332,352.319824 221.416031,357.662598 222.612839,364.416168 
	C216.202545,360.906403 210.909561,358.056152 205.661102,355.126160 
	C187.109726,344.769653 168.575562,334.382263 150.025223,324.023865 
	C149.162857,323.542297 148.207733,323.226868 146.958466,322.818573 
	C146.481766,320.200836 146.342422,317.598572 146.630188,314.506531 
	C147.582901,313.627014 148.111496,313.241180 148.633667,312.846832 
	C154.722214,308.248962 160.809799,303.649811 166.897644,299.050995 
	C170.308578,306.406494 173.826248,313.715332 177.075195,321.141693 
	C178.287796,323.913361 179.768509,325.227509 182.986252,325.079254 
	C188.902130,324.806702 194.839539,325.001495 201.743652,325.001495 
	C195.357803,310.718933 189.319901,297.214539 183.623611,283.420959 
	C185.648743,281.757965 187.332245,280.384155 189.007568,279.005188 
	C188.999390,279.000000 189.009247,279.017181 189.347137,278.988342 
	C191.460037,277.311584 193.235031,275.663666 195.005310,274.007874 
	C195.000610,274.000000 195.014618,274.013092 195.350616,273.999695 
	C197.129669,272.660950 198.572739,271.335632 200.008331,270.005402 
	C200.000854,270.000488 200.010498,270.017609 200.349152,269.988342 
	C202.092575,269.320679 203.497330,268.682251 204.902069,268.043793 
z"/>
<path fill="#FEFEFE" opacity="1.000000" stroke="none" 
	d="
M141.114944,325.560547 
	C142.577072,324.975281 144.077942,324.785706 145.862396,324.343201 
	C164.692383,334.499664 183.238937,344.908752 201.785126,355.318481 
	C207.990143,358.801331 214.194244,362.285797 221.462418,366.366699 
	C196.955566,373.246521 173.514328,379.827179 149.471100,386.576843 
	C148.249802,377.687378 147.129333,369.541656 146.011826,361.395508 
	C144.391327,349.582550 142.772964,337.769318 141.114944,325.560547 
z"/>
<path fill="#FEFEFE" opacity="1.000000" stroke="none" 
	d="
M214.093918,309.185486 
	C220.618408,300.892303 227.460892,292.831879 234.748581,284.247040 
	C236.549728,286.418823 237.998932,288.130280 239.409500,289.873016 
	C247.335159,299.665039 255.436783,309.323059 263.082764,319.329071 
	C266.284210,323.518707 269.659424,326.079895 275.502960,325.058197 
	C270.026794,329.867279 264.183319,334.720032 258.188477,339.377930 
	C247.586151,347.615845 236.891708,355.735168 225.102234,364.773163 
	C221.432465,345.770935 217.922195,327.594604 214.093918,309.185486 
z"/>
<path fill="#FEFEFE" opacity="1.000000" stroke="none" 
	d="
M312.038635,325.577087 
	C320.887909,324.766144 320.887421,324.765991 323.817078,316.404907 
	C324.911224,313.282257 326.008118,310.160583 327.688965,306.906616 
	C339.176056,309.187012 350.077942,311.599213 360.979797,314.011414 
	C362.495178,324.133942 368.840149,326.767212 378.024811,325.014099 
	C378.342896,324.953400 378.684052,325.013428 379.474121,325.063538 
	C373.884460,330.257172 367.920319,335.508820 361.768311,340.530334 
	C348.380890,351.457764 334.902405,362.273651 321.447693,373.118500 
	C319.823334,374.427795 318.116211,375.634491 315.558807,377.556671 
	C314.326324,359.645844 313.169281,342.831238 312.038635,325.577087 
z"/>
<path fill="#FEFEFE" opacity="1.000000" stroke="none" 
	d="
M214.669052,106.604782 
	C211.232819,123.089432 207.925903,139.167557 204.461700,156.010422 
	C183.460144,149.018417 162.604782,142.075073 140.535248,134.727493 
	C166.751572,118.872231 192.054947,103.569115 218.304764,87.693596 
	C217.000580,94.576309 215.899490,100.387283 214.669052,106.604782 
z"/>
<path fill="#FEFEFE" opacity="1.000000" stroke="none" 
	d="
M340.328308,215.109558 
	C332.093109,237.787399 323.421265,260.475586 314.734039,283.157837 
	C313.196960,287.171265 311.595673,291.160126 309.589294,295.353668 
	C308.753021,294.668274 308.227600,293.824402 307.968781,292.905426 
	C304.771851,281.555664 301.534912,270.216187 298.467072,258.831268 
	C295.141876,246.491180 291.983582,234.106110 288.752441,221.740677 
	C290.504242,219.379868 292.256012,217.019073 294.627258,213.823471 
	C291.479828,213.608719 289.129974,213.448380 286.365906,213.182358 
	C285.836823,212.265533 285.721954,211.454391 285.528320,210.086563 
	C303.789642,211.776810 321.838043,213.447327 340.328308,215.109558 
z"/>
<path fill="#FEFEFE" opacity="1.000000" stroke="none" 
	d="
M238.877869,419.127960 
	C210.217911,408.910339 181.933578,398.805847 152.137497,388.161285 
	C176.762283,381.218689 199.992523,374.669250 223.674515,367.992462 
	C232.491348,386.148804 241.231628,404.147522 250.479141,423.190735 
	C245.995102,421.613037 242.624313,420.427063 238.877869,419.127960 
z"/>
<path fill="#FEFEFE" opacity="1.000000" stroke="none" 
	d="
M308.318420,383.271851 
	C289.946442,396.688507 271.842346,409.868042 253.066376,423.536713 
	C243.995010,404.910492 235.217163,386.886932 226.046387,368.056580 
	C254.612991,372.233612 282.472961,376.307312 310.976135,380.475067 
	C309.977539,381.544647 309.281891,382.289703 308.318420,383.271851 
z"/>
<path fill="#FEFEFE" opacity="1.000000" stroke="none" 
	d="
M251.318649,99.693634 
	C242.590973,95.339989 234.195374,91.156128 225.799759,86.972267 
	C225.895554,86.746758 225.991348,86.521248 226.087143,86.295738 
	C254.453751,86.295738 282.820374,86.295738 312.109619,86.295738 
	C310.245178,99.593605 308.424316,112.580490 306.451843,126.648941 
	C287.881348,117.572113 269.766022,108.717766 251.318649,99.693634 
z"/>
<path fill="#FEFEFE" opacity="1.000000" stroke="none" 
	d="
M105.167618,168.112671 
	C114.882195,158.891647 124.596764,149.670609 134.311340,140.449570 
	C134.656326,140.585297 135.001312,140.721039 135.346298,140.856766 
	C128.965637,166.730682 122.584984,192.604599 116.111824,218.853622 
	C114.624535,218.071945 113.644371,217.556808 112.332321,217.022202 
	C112.000450,217.002747 112.018250,217.006760 111.910858,216.687851 
	C108.199654,213.240387 104.595833,210.111832 100.994736,206.991852 
	C100.997452,207.000443 101.014183,207.007355 101.014191,207.007355 
	C95.584702,201.253983 90.155205,195.500610 84.394386,189.396164 
	C86.890427,186.606995 89.941017,183.198135 93.489029,179.411285 
	C97.713509,175.393097 101.440559,171.752884 105.167618,168.112671 
z"/>
<path fill="#FEFEFE" opacity="1.000000" stroke="none" 
	d="
M382.111633,325.722290 
	C383.167999,325.261688 384.195404,325.131378 385.612000,325.018097 
	C376.593781,346.467865 367.154205,367.886627 357.817261,389.350037 
	C356.562622,392.234161 355.348969,393.525696 351.867462,392.198883 
	C340.554077,387.887146 329.103790,383.934631 316.902130,379.555267 
	C323.219543,374.446960 329.069214,369.715851 334.920013,364.986115 
	C349.630310,353.094482 364.349854,341.214264 379.034546,329.291107 
	C380.175140,328.365021 381.072357,327.139130 382.111633,325.722290 
z"/>
<path fill="#FEFEFE" opacity="1.000000" stroke="none" 
	d="
M382.860016,143.172119 
	C372.622955,141.110779 362.367798,139.134872 352.153259,136.967438 
	C337.893829,133.941757 323.664764,130.773026 308.509399,127.466209 
	C310.332977,114.388069 312.128723,101.509514 314.077423,87.533936 
	C319.807495,92.020622 324.861267,95.937241 329.871796,99.908417 
	C346.933167,113.430748 363.981079,126.970024 381.024261,140.515289 
	C381.672150,141.030228 382.217712,141.673965 382.906860,142.630371 
	C383.002777,143.003067 382.860016,143.172119 382.860016,143.172119 
z"/>
<path fill="#FEFEFE" opacity="1.000000" stroke="none" 
	d="
M414.223267,215.897720 
	C412.801788,215.169556 411.712646,213.543579 410.560944,213.497986 
	C404.177582,213.245239 397.779022,213.376877 390.967682,213.376877 
	C390.967682,217.105743 390.967682,220.059326 390.894806,223.454681 
	C384.649963,221.540222 378.477997,219.183990 371.849548,216.653488 
	C377.789001,194.729889 383.642822,173.122437 389.496613,151.514999 
	C389.892883,151.490829 390.289154,151.466660 390.685394,151.442490 
	C394.177795,160.625977 397.654724,169.815384 401.166565,178.991440 
	C405.255585,189.675613 409.400818,200.338379 413.451813,211.036880 
	C414.014740,212.523605 414.178284,214.161575 414.223267,215.897720 
z"/>
<path fill="#FEFEFE" opacity="1.000000" stroke="none" 
	d="
M124.834099,315.077179 
	C125.357986,324.991852 125.357986,324.991608 135.569916,325.002197 
	C136.387146,325.003052 137.204361,325.011749 138.479553,325.074890 
	C141.248749,341.626465 143.582901,358.116791 145.842865,374.617310 
	C146.133652,376.740509 146.039368,378.916473 146.063721,381.532837 
	C146.003967,381.997681 145.968872,382.031158 145.968872,382.031158 
	C137.652908,371.053894 129.311508,360.095795 121.028267,349.093872 
	C113.030731,338.471375 105.093185,327.803741 96.775406,317.050476 
	C99.094200,314.413208 101.766876,311.881439 105.112595,309.201080 
	C112.135124,311.060730 118.484612,313.068970 124.834099,315.077179 
z"/>
<path fill="#FEFEFE" opacity="1.000000" stroke="none" 
	d="
M322.214172,383.850281 
	C332.138702,387.333313 341.689758,390.711060 351.240845,394.088837 
	C351.297119,394.463684 351.353394,394.838531 351.409668,395.213379 
	C321.566528,403.929840 291.723419,412.646332 261.880280,421.362793 
	C261.685394,420.949493 261.490479,420.536194 261.295593,420.122894 
	C269.590485,414.124237 277.902863,408.149536 286.175201,402.119904 
	C293.967468,396.440155 301.940918,390.975922 309.399353,384.883942 
	C313.632111,381.426666 317.390625,380.866974 322.214172,383.850281 
z"/>
<path fill="#FDFDFD" opacity="1.000000" stroke="none" 
	d="
M385.108337,317.234436 
	C378.133789,300.824097 371.537476,284.345520 365.047577,267.825165 
	C361.527069,258.863464 358.187805,249.830597 354.719482,240.444855 
	C359.523071,233.844543 364.373932,227.629227 369.898895,220.550125 
	C371.354675,227.512253 372.718353,233.555069 373.872406,239.637680 
	C378.438416,263.703918 382.953033,287.779938 387.437531,311.861481 
	C387.815430,313.890869 389.622711,316.643677 385.108337,317.234436 
z"/>
<path fill="#FEFEFE" opacity="1.000000" stroke="none" 
	d="
M124.385834,226.100418 
	C124.909576,228.502350 125.074951,230.898117 125.277237,233.828568 
	C130.006866,233.828568 134.538269,233.828568 139.755524,234.154129 
	C145.602615,237.085358 150.707108,239.811951 155.938904,242.267212 
	C163.081284,245.619080 170.320633,248.764343 177.518417,251.998169 
	C175.502640,257.622711 170.707657,259.022888 165.616669,259.123779 
	C152.712875,259.379456 139.801651,259.259491 126.439743,259.156433 
	C123.863205,249.480560 121.731812,239.940033 119.626549,230.393723 
	C119.306137,228.940811 119.106903,227.461182 118.934998,225.482651 
	C119.018356,224.971405 119.221039,224.761612 119.221039,224.761612 
	C120.823181,225.205826 122.425331,225.650040 124.385834,226.100418 
z"/>
<path fill="#FEFEFE" opacity="1.000000" stroke="none" 
	d="
M390.501282,225.978821 
	C390.855927,249.902603 390.855927,273.739441 390.855927,298.153076 
	C392.849518,298.153076 394.429657,298.153076 396.453278,298.200439 
	C394.911255,303.617950 392.925751,308.988129 390.940247,314.358276 
	C390.632050,314.303345 390.323822,314.248413 390.015594,314.193481 
	C384.062073,282.855255 378.108551,251.517014 371.962769,219.166779 
	C378.353729,221.530396 384.250183,223.711121 390.501282,225.978821 
z"/>
<path fill="#FEFEFE" opacity="1.000000" stroke="none" 
	d="
M414.376770,314.038208 
	C414.523560,315.121918 414.649109,316.448730 414.056854,317.234650 
	C398.458435,337.934052 382.781006,358.573914 367.139526,379.240936 
	C366.345825,380.289673 365.752167,381.489838 365.065338,382.619537 
	C364.561432,382.234406 364.057495,381.849304 363.553589,381.464203 
	C366.171356,375.397888 368.741669,369.310608 371.416534,363.269562 
	C377.271240,350.047089 383.053619,336.789215 389.198029,323.701874 
	C390.135956,321.704132 392.618164,319.824493 394.784760,319.125183 
	C401.088409,317.090576 407.594391,315.682831 414.376770,314.038208 
z"/>
<path fill="#FDFDFD" opacity="1.000000" stroke="none" 
	d="
M155.199371,105.114616 
	C172.449310,100.273888 189.303482,95.511726 206.157639,90.749565 
	C206.382736,91.219505 206.607834,91.689445 206.832932,92.159386 
	C184.870880,105.451347 162.908829,118.743309 139.797333,132.730942 
	C142.190430,123.900787 143.771851,116.126228 146.616333,108.845108 
	C147.390289,106.863991 151.970367,106.369797 155.199371,105.114616 
z"/>
<path fill="#FCFCFC" opacity="1.000000" stroke="none" 
	d="
M399.147430,298.840729 
	C403.276062,298.298981 407.395050,298.114868 412.677856,297.878693 
	C412.677856,287.547516 412.677856,277.187744 413.072968,266.253967 
	C414.930878,263.476288 416.393677,261.272644 417.856506,259.069000 
	C419.233673,261.102112 420.610840,263.135223 422.072601,265.494324 
	C421.465210,272.729980 420.646851,279.629974 420.116760,286.552063 
	C419.585052,293.495422 419.416565,300.466370 418.901031,307.411285 
	C418.808228,308.661285 418.045166,310.680908 417.185425,310.927155 
	C409.126099,313.235565 400.978302,315.235138 391.763153,317.605072 
	C394.525696,310.709930 396.831726,304.954132 399.147430,298.840729 
z"/>
<path fill="#FCFCFC" opacity="1.000000" stroke="none" 
	d="
M124.768356,258.834442 
	C125.058952,276.684937 125.022522,294.348083 124.553085,312.448608 
	C118.409386,310.923523 112.698708,308.960968 106.988022,306.998444 
	C120.552475,287.827667 123.358498,267.251373 114.932121,245.271652 
	C113.811340,242.348160 112.212051,239.608109 110.753616,236.423019 
	C112.375183,232.906555 114.077499,229.750183 116.250977,225.720184 
	C119.088104,237.125992 121.764717,247.886520 124.768356,258.834442 
z"/>
<path fill="#FDFDFD" opacity="1.000000" stroke="none" 
	d="
M110.006874,234.716095 
	C102.781601,226.270111 94.368248,219.128113 82.941833,215.563690 
	C82.682213,208.217316 82.682213,201.120163 82.682213,193.062408 
	C89.041595,198.158569 94.666824,202.666412 100.653114,207.090805 
	C101.014183,207.007355 100.997452,207.000443 100.930374,207.345184 
	C104.581619,210.795547 108.299934,213.901154 112.018250,217.006760 
	C112.018250,217.006760 112.000450,217.002747 111.996590,216.994415 
	C117.148781,223.431534 112.023689,228.710983 110.006874,234.716095 
z"/>
<path fill="#FCFCFC" opacity="1.000000" stroke="none" 
	d="
M160.068069,393.913879 
	C165.595123,395.627380 171.185074,397.162628 176.637787,399.086823 
	C195.126602,405.611298 213.569366,412.266479 232.020401,418.897736 
	C233.312073,419.361969 234.527863,420.037384 235.471664,421.531799 
	C224.972488,419.874146 214.518311,417.271698 203.964127,416.769012 
	C185.822845,415.904968 174.333984,402.954651 160.137589,394.318665 
	C160.008133,393.987274 160.068069,393.913879 160.068069,393.913879 
z"/>
<path fill="#FCFCFC" opacity="1.000000" stroke="none" 
	d="
M99.988312,170.016022 
	C100.362534,168.807465 100.433563,167.366196 101.156029,166.424942 
	C113.875168,149.854080 126.672050,133.342880 139.462234,116.826607 
	C139.925491,116.228394 140.492264,115.710320 141.528336,115.421333 
	C139.433563,123.337196 139.953125,131.993179 133.255997,138.328293 
	C123.489189,147.567169 113.950844,157.047546 103.876343,166.855530 
	C102.287827,168.196075 101.138069,169.106049 99.988312,170.016022 
z"/>
<path fill="#FCFCFC" opacity="1.000000" stroke="none" 
	d="
M136.739655,375.221710 
	C126.377014,367.112854 115.249260,359.849823 109.423164,347.196411 
	C105.617073,338.930054 101.122025,330.980957 97.003181,322.416687 
	C97.070801,321.943634 97.367874,321.709137 97.367874,321.709137 
	C101.347321,326.711700 105.454399,331.618805 109.280891,336.735748 
	C118.584885,349.177399 127.758568,361.716553 136.961014,374.636536 
	C136.937271,375.056671 136.739655,375.221710 136.739655,375.221710 
z"/>
<path fill="#F7F7F7" opacity="1.000000" stroke="none" 
	d="
M264.000000,84.861923 
	C252.384094,84.861763 241.268173,84.861763 230.152267,84.861763 
	C238.933502,82.165390 247.031570,77.069412 256.904419,78.711594 
	C269.278412,80.769814 281.749481,82.244370 294.176544,83.985641 
	C294.772430,84.069138 295.348328,84.295326 295.858673,84.862083 
	C285.405792,84.862083 274.952881,84.862083 264.000000,84.861923 
z"/>
<path fill="#FCFCFC" opacity="1.000000" stroke="none" 
	d="
M353.440002,236.986328 
	C350.449097,230.233093 347.808533,223.509186 345.150574,216.424255 
	C352.631256,216.764923 360.129333,217.466599 369.258453,218.320923 
	C363.520203,225.256165 358.655304,231.135910 353.440002,236.986328 
z"/>
<path fill="#C5C5C5" opacity="1.000000" stroke="none" 
	d="
M99.998833,170.010529 
	C101.138069,169.106049 102.287827,168.196075 103.723083,167.149902 
	C104.230629,167.296936 104.452690,167.580154 104.921181,167.988022 
	C101.440559,171.752884 97.713509,175.393097 93.683273,179.134262 
	C94.025627,177.264984 94.671165,175.294769 95.754066,173.374634 
	C96.799286,172.943268 97.407150,172.461838 98.015007,171.980392 
	C98.015007,171.980392 98.008682,172.008728 98.281044,171.916870 
	C99.039581,171.210312 99.525764,170.595596 100.011948,169.980896 
	C100.011948,169.980896 100.009361,170.005035 99.998833,170.010529 
z"/>
<path fill="#F7F7F7" opacity="1.000000" stroke="none" 
	d="
M124.551025,217.183121 
	C124.906616,219.084763 124.953514,221.091949 124.950912,223.527405 
	C123.078651,223.380920 121.255882,222.806198 118.322754,221.881378 
	C120.825714,219.939468 122.534027,218.614075 124.551025,217.183121 
z"/>
<path fill="#FCFCFC" opacity="1.000000" stroke="none" 
	d="
M93.768730,319.013000 
	C93.492393,318.769836 93.561607,318.587524 93.862778,318.227020 
	C95.133194,319.051208 96.171654,320.053589 97.288986,321.382568 
	C97.367874,321.709137 97.070801,321.943634 96.925430,322.068359 
	C95.891457,321.153351 95.002861,320.113617 93.768730,319.013000 
z"/>
<path fill="#FCFCFC" opacity="1.000000" stroke="none" 
	d="
M97.703560,171.961273 
	C97.407150,172.461838 96.799286,172.943268 96.039017,173.207581 
	C96.388435,172.641022 96.890274,172.291595 97.703560,171.961273 
z"/>
<path fill="#FCFCFC" opacity="1.000000" stroke="none" 
	d="
M99.665649,169.950256 
	C99.525764,170.595596 99.039581,171.210312 98.266922,171.920227 
	C98.426750,171.316833 98.873055,170.618240 99.665649,169.950256 
z"/>
<path fill="#FCFCFC" opacity="1.000000" stroke="none" 
	d="
M159.976105,394.022156 
	C159.517426,393.888428 159.090775,393.719818 158.664124,393.551178 
	C159.057770,393.526154 159.451431,393.501129 159.956573,393.695007 
	C160.068069,393.913879 160.008133,393.987274 159.976105,394.022156 
z"/>
<path fill="#FEFEFE" opacity="1.000000" stroke="none" 
	d="
M146.023041,381.982635 
	C146.162964,382.412689 146.283813,382.857788 146.404648,383.302887 
	C146.269928,383.036469 146.135223,382.770050 145.984695,382.267395 
	C145.968872,382.031158 146.003967,381.997681 146.023041,381.982635 
z"/>
<path fill="#FDFDFD" opacity="1.000000" stroke="none" 
	d="
M209.235046,90.656952 
	C208.916779,90.638985 208.748856,90.491714 208.580933,90.344437 
	C208.849091,90.405502 209.117233,90.466576 209.235046,90.656952 
z"/>
<path fill="#FCFCFC" opacity="1.000000" stroke="none" 
	d="
M137.035583,374.973572 
	C137.239365,375.412567 137.344833,375.934692 137.450317,376.456787 
	C137.255096,376.204437 137.059860,375.952057 136.802155,375.460693 
	C136.739655,375.221710 136.937271,375.056671 137.035583,374.973572 
z"/>
<path fill="#FEFEFE" opacity="1.000000" stroke="none" 
	d="
M383.076294,142.920410 
	C383.563263,143.036850 383.976685,143.235947 384.390106,143.435028 
	C383.983124,143.474503 383.576172,143.513962 383.014587,143.362762 
	C382.860016,143.172119 383.002777,143.003067 383.076294,142.920410 
z"/>
<path fill="#FEFEFE" opacity="1.000000" stroke="none" 
	d="
M310.472961,130.440094 
	C310.578735,130.376007 310.622864,130.637543 310.622864,130.637543 
	C310.622864,130.637543 310.367188,130.504196 310.472961,130.440094 
z"/>
<path fill="#FCFCFC" opacity="1.000000" stroke="none" 
	d="
M142.555115,113.632492 
	C142.457199,113.720299 142.414658,113.410385 142.414658,113.410385 
	C142.414658,113.410385 142.653015,113.544685 142.555115,113.632492 
z"/>
<path fill="#FEFEFE" opacity="1.000000" stroke="none" 
	d="
M118.913376,225.072678 
	C118.724144,224.925095 118.639893,224.676224 118.555649,224.427368 
	C118.698372,224.443497 118.841103,224.459610 119.102432,224.618683 
	C119.221039,224.761612 119.018356,224.971405 118.913376,225.072678 
z"/>
<path fill="#C5C5C5" opacity="1.000000" stroke="none" 
	d="
M417.759766,258.742249 
	C416.393677,261.272644 414.930878,263.476288 413.162170,265.850037 
	C412.475952,261.538330 412.095612,257.056610 411.715302,252.574875 
	C412.138916,252.403763 412.562531,252.232651 412.986145,252.061539 
	C414.545105,254.179535 416.104065,256.297516 417.759766,258.742249 
z"/>
<path fill="#FDFDFD" opacity="1.000000" stroke="none" 
	d="
M83.272766,300.068542 
	C73.116928,308.450134 54.181683,306.881378 43.898960,296.806580 
	C29.713289,282.907745 29.722120,255.112915 44.238155,241.539078 
	C53.906422,232.498352 65.381126,231.086716 77.928955,235.885681 
	C77.745590,245.674255 77.384323,254.733429 76.942261,263.788666 
	C76.890266,264.853760 76.394096,265.897186 76.013641,266.608337 
	C73.010483,260.545868 69.286621,258.141876 64.251015,259.081726 
	C59.759296,259.920044 56.802422,262.619629 55.877468,267.200836 
	C54.648621,273.287231 58.320671,278.750183 64.258698,279.811310 
	C70.473045,280.921844 75.397522,276.568726 76.723557,269.211060 
	C77.710915,272.168549 78.422356,274.997375 78.987465,277.855133 
	C80.450310,285.252808 81.848663,292.663208 83.272766,300.068542 
z"/>
<path fill="#FCFCFC" opacity="1.000000" stroke="none" 
	d="
M84.023140,238.670654 
	C92.994888,244.808609 97.184769,253.576721 97.690620,264.777832 
	C93.285606,274.695892 89.240334,284.009430 85.195053,293.322968 
	C84.804420,293.248047 84.413780,293.173126 84.023140,293.098206 
	C84.023140,274.955688 84.023140,256.813171 84.023140,238.670654 
z"/>
<path fill="#C0C0C0" opacity="1.000000" stroke="none" 
	d="
M83.888351,238.408081 
	C84.023140,256.813171 84.023140,274.955688 84.023140,293.098206 
	C84.413780,293.173126 84.804420,293.248047 85.195053,293.322968 
	C89.240334,284.009430 93.285606,274.695892 97.622223,265.197327 
	C98.254135,266.139954 98.594711,267.267578 98.505745,268.828491 
	C97.162140,270.963470 96.074226,272.595856 95.363953,274.378754 
	C92.198143,282.325378 89.140282,290.315002 86.043419,298.289124 
	C85.313332,298.878510 84.583237,299.467926 83.562958,300.062927 
	C81.848663,292.663208 80.450310,285.252808 78.987465,277.855133 
	C78.422356,274.997375 77.710915,272.168549 76.569679,268.873962 
	C76.083412,267.931122 76.093620,267.440887 76.103836,266.950653 
	C76.394096,265.897186 76.890266,264.853760 76.942261,263.788666 
	C77.384323,254.733429 77.745590,245.674255 78.211792,236.138077 
	C79.122932,235.872284 79.953377,236.084671 80.606384,236.849060 
	C78.954208,251.654724 77.608215,265.904633 81.121574,278.074677 
	C81.121574,265.619568 81.121574,251.249557 81.121567,236.879578 
	C81.998901,237.301559 82.876236,237.723541 83.888351,238.408081 
z"/>
<path fill="#F7F7F7" opacity="1.000000" stroke="none" 
	d="
M86.371910,298.176392 
	C89.140282,290.315002 92.198143,282.325378 95.363953,274.378754 
	C96.074226,272.595856 97.162140,270.963470 98.400688,269.184937 
	C98.557587,280.354950 95.377007,290.350525 86.371910,298.176392 
z"/>
<path fill="#C0C0C0" opacity="1.000000" stroke="none" 
	d="
M106.728996,307.127380 
	C112.698708,308.960968 118.409386,310.923523 124.486862,312.908783 
	C124.880455,313.409119 124.907265,313.886719 124.884087,314.720764 
	C118.484612,313.068970 112.135124,311.060730 105.396606,309.028931 
	C105.495049,308.422333 105.982513,307.839325 106.728996,307.127380 
z"/>
<path fill="#E3E3E3" opacity="1.000000" stroke="none" 
	d="
M256.657104,227.023453 
	C247.161011,239.531570 237.314087,252.059570 227.467163,264.587555 
	C227.094208,264.476410 226.721237,264.365265 226.348267,264.254150 
	C226.348267,259.121857 226.348267,253.989578 226.413345,248.387573 
	C236.421036,240.959671 246.363647,234.001495 256.657104,227.023453 
z"/>
<path fill="#C5C5C5" opacity="1.000000" stroke="none" 
	d="
M204.958832,267.614044 
	C203.497330,268.682251 202.092575,269.320679 200.294388,269.644775 
	C200.788284,268.030365 201.675613,266.730286 202.521118,265.491486 
	C200.952759,264.097809 199.447968,262.760651 197.943192,261.423462 
	C197.943192,261.423462 197.801117,261.329376 197.795807,261.244995 
	C199.853180,261.735626 201.915878,262.310638 204.334412,262.882721 
	C204.798691,264.314636 204.907135,265.749481 204.958832,267.614044 
z"/>
<path fill="#FEFEFE" opacity="1.000000" stroke="none" 
	d="
M146.211639,310.914001 
	C146.211624,300.789948 146.211624,290.665894 146.211624,280.710541 
	C146.776688,280.387817 147.043472,280.107697 147.323196,280.094116 
	C158.022980,279.575470 158.029236,279.575928 162.548767,289.378448 
	C163.592117,291.641357 164.577789,293.930847 165.289047,296.596985 
	C164.332672,297.471039 163.676834,297.955658 163.021927,298.441559 
	C157.418396,302.598907 151.815048,306.756500 146.211639,310.914001 
z"/>
<path fill="#FCFCFC" opacity="1.000000" stroke="none" 
	d="
M144.993652,233.873871 
	C151.920944,233.887299 158.869995,233.559097 165.770187,233.998367 
	C174.928284,234.581345 179.208298,239.813858 178.366913,249.467346 
	C166.931976,244.558380 155.962814,239.216125 144.993652,233.873871 
z"/>
<path fill="#F7F7F7" opacity="1.000000" stroke="none" 
	d="
M197.621704,261.601715 
	C199.447968,262.760651 200.952759,264.097809 202.521118,265.491486 
	C201.675613,266.730286 200.788284,268.030365 199.955719,269.674011 
	C200.010498,270.017609 200.000854,270.000488 199.642914,269.926117 
	C197.861511,271.238861 196.438080,272.625977 195.014618,274.013092 
	C195.014618,274.013092 195.000610,274.000000 194.641357,273.932556 
	C192.524490,275.582458 190.766861,277.299835 189.009247,279.017181 
	C189.009247,279.017181 188.999390,279.000000 188.650269,278.925171 
	C186.261703,279.875061 184.222260,280.899811 182.182816,281.924591 
	C181.431564,280.291016 180.680313,278.657410 179.695694,276.516357 
	C187.564972,273.786438 193.174957,268.623535 197.621704,261.601715 
z"/>
<path fill="#C0C0C0" opacity="1.000000" stroke="none" 
	d="
M144.734344,233.676727 
	C155.962814,239.216125 166.931976,244.558380 178.253876,249.871887 
	C178.379227,250.456879 178.151825,251.070602 177.721420,251.841248 
	C170.320633,248.764343 163.081284,245.619080 155.938904,242.267212 
	C150.707108,239.811951 145.602615,237.085358 140.218018,234.220947 
	C141.488129,233.801346 142.981583,233.640457 144.734344,233.676727 
z"/>
<path fill="#C5C5C5" opacity="1.000000" stroke="none" 
	d="
M146.130280,311.315918 
	C151.815048,306.756500 157.418396,302.598907 163.021927,298.441559 
	C163.676834,297.955658 164.332672,297.471039 165.315552,296.934967 
	C166.045868,297.390747 166.448761,297.897430 166.874649,298.727539 
	C160.809799,303.649811 154.722214,308.248962 148.633667,312.846832 
	C148.111496,313.241180 147.582901,313.627014 146.735382,314.081726 
	C146.291946,313.337036 146.170425,312.527405 146.130280,311.315918 
z"/>
<path fill="#C5C5C5" opacity="1.000000" stroke="none" 
	d="
M182.242950,282.208618 
	C184.222260,280.899811 186.261703,279.875061 188.658447,278.930328 
	C187.332245,280.384155 185.648743,281.757965 183.631653,283.061890 
	C182.966431,282.825562 182.634766,282.659119 182.242950,282.208618 
z"/>
<path fill="#FEFEFE" opacity="1.000000" stroke="none" 
	d="
M261.666595,284.297821 
	C257.581909,279.726654 253.497192,275.155457 249.147324,270.287506 
	C261.415466,255.162231 273.463531,240.308258 286.068726,225.402527 
	C287.238342,226.878342 288.005707,228.363312 288.439667,229.940048 
	C293.356506,247.804733 298.223236,265.683228 303.101288,283.558594 
	C304.463257,288.549530 305.818451,293.542358 307.501526,299.727966 
	C303.820984,298.563141 301.499908,297.874420 299.209320,297.096008 
	C286.690948,292.842102 274.180054,288.566193 261.666595,284.297821 
z"/>
<path fill="#FCFCFC" opacity="1.000000" stroke="none" 
	d="
M306.943451,301.993988 
	C306.943451,301.993988 306.952515,302.464539 306.522003,302.732880 
	C301.707489,306.257507 297.245758,309.416779 292.986847,312.829193 
	C291.706512,313.855011 290.990906,315.585663 290.016632,316.993469 
	C290.016632,316.993469 290.018524,316.971375 290.032410,316.965363 
	C287.184570,314.015106 284.185181,311.190979 281.489960,308.101501 
	C275.915588,301.711823 270.503113,295.180908 265.349121,288.317322 
	C279.430603,292.615753 293.187042,297.304871 306.943451,301.993988 
z"/>
<path fill="#C0C0C0" opacity="1.000000" stroke="none" 
	d="
M307.204132,301.775574 
	C293.187042,297.304871 279.430603,292.615753 265.265991,287.984467 
	C264.857758,288.042328 264.940918,287.994049 264.876862,287.784851 
	C264.516235,287.385345 264.219635,287.194977 263.923065,287.004639 
	C263.232330,286.296967 262.541595,285.589294 261.758728,284.589722 
	C274.180054,288.566193 286.690948,292.842102 299.209320,297.096008 
	C301.499908,297.874420 303.820984,298.563141 307.501526,299.727966 
	C305.818451,293.542358 304.463257,288.549530 303.101288,283.558594 
	C298.223236,265.683228 293.356506,247.804733 288.439667,229.940048 
	C288.005707,228.363312 287.238342,226.878342 286.309387,225.172195 
	C286.727753,224.007507 287.462585,223.021393 288.474945,221.887985 
	C291.983582,234.106110 295.141876,246.491180 298.467072,258.831268 
	C301.534912,270.216187 304.771851,281.555664 307.968781,292.905426 
	C308.227600,293.824402 308.753021,294.668274 309.469177,295.702454 
	C309.010773,297.757629 308.237793,299.657410 307.204132,301.775574 
z"/>
<path fill="#FCFCFC" opacity="1.000000" stroke="none" 
	d="
M263.983795,287.283173 
	C264.219635,287.194977 264.516235,287.385345 264.901123,287.826355 
	C264.674500,287.905273 264.359497,287.733490 263.983795,287.283173 
z"/>
<path fill="#FCFCFC" opacity="1.000000" stroke="none" 
	d="
M328.102783,304.951569 
	C332.802307,291.037476 337.501862,277.123413 342.689087,261.765381 
	C348.754181,278.826721 354.339050,294.537109 359.534302,310.662231 
	C357.677521,310.871216 356.194672,310.742401 354.745728,310.447113 
	C345.860474,308.636230 336.982910,306.787598 328.102783,304.951569 
z"/>
<path fill="#C0C0C0" opacity="1.000000" stroke="none" 
	d="
M327.960022,305.174805 
	C336.982910,306.787598 345.860474,308.636230 354.745728,310.447113 
	C356.194672,310.742401 357.677521,310.871216 359.568146,311.036621 
	C360.319122,311.785309 360.646698,312.574280 360.977020,313.687317 
	C350.077942,311.599213 339.176056,309.187012 327.869568,306.580627 
	C327.582397,306.056976 327.699829,305.727509 327.960022,305.174805 
z"/>
<path fill="#C0C0C0" opacity="1.000000" stroke="none" 
	d="
M290.362000,316.964783 
	C290.990906,315.585663 291.706512,313.855011 292.986847,312.829193 
	C297.245758,309.416779 301.707489,306.257507 306.424316,302.946960 
	C306.436584,304.142975 306.116028,305.393280 305.239441,306.912842 
	C304.479706,307.499756 304.276031,307.817444 304.072357,308.135132 
	C304.072357,308.135132 304.184723,308.123871 304.209320,308.173920 
	C299.725067,311.128021 295.216248,314.032074 290.362000,316.964783 
z"/>
<path fill="#FEFEFE" opacity="1.000000" stroke="none" 
	d="
M304.411621,308.222443 
	C304.276031,307.817444 304.479706,307.499756 304.976868,307.104736 
	C305.097168,307.454895 304.924042,307.882324 304.411621,308.222443 
z"/>
<path fill="#C5C5C5" opacity="1.000000" stroke="none" 
	d="
M189.347137,278.988342 
	C190.766861,277.299835 192.524490,275.582458 194.646072,273.940430 
	C193.235031,275.663666 191.460037,277.311584 189.347137,278.988342 
z"/>
<path fill="#C5C5C5" opacity="1.000000" stroke="none" 
	d="
M195.350616,273.999695 
	C196.438080,272.625977 197.861511,271.238861 199.650391,269.931030 
	C198.572739,271.335632 197.129669,272.660950 195.350616,273.999695 
z"/>
<path fill="#C0C0C0" opacity="1.000000" stroke="none" 
	d="
M111.910858,216.687851 
	C108.299934,213.901154 104.581619,210.795547 100.927658,207.336609 
	C104.595833,210.111832 108.199654,213.240387 111.910858,216.687851 
z"/>
<path fill="#424243" opacity="1.000000" stroke="none" 
	d="
M76.013641,266.608337 
	C76.093620,267.440887 76.083412,267.931122 76.227097,268.758484 
	C75.397522,276.568726 70.473045,280.921844 64.258698,279.811310 
	C58.320671,278.750183 54.648621,273.287231 55.877468,267.200836 
	C56.802422,262.619629 59.759296,259.920044 64.251015,259.081726 
	C69.286621,258.141876 73.010483,260.545868 76.013641,266.608337 
z"/>
<path fill="#F7F7F7" opacity="1.000000" stroke="none" 
	d="
M81.066788,236.927399 
	C81.121574,251.249557 81.121574,265.619568 81.121574,278.074677 
	C77.608215,265.904633 78.954208,251.654724 80.764511,237.131073 
	C81.100067,236.861069 81.011993,236.975250 81.066788,236.927399 
z"/>
</svg>