<svg version="1.1" id="Layer_1" xmlns="http://www.w3.org/2000/svg" xmlns:xlink="http://www.w3.org/1999/xlink" x="0px" y="0px"
	 width="100%" viewBox="0 0 496 496" enable-background="new 0 0 496 496" xml:space="preserve">
<path fill="#000000" opacity="1.000000" stroke="none" 
	d="
M438.045959,304.740143 
	C429.159668,308.710754 421.168854,306.547516 416.070404,299.247803 
	C405.584595,284.234802 395.128143,269.201324 384.622437,254.202301 
	C383.613739,252.762115 382.906464,250.987274 380.346222,249.910004 
	C380.346222,256.688446 380.346802,263.099854 380.345917,269.511292 
	C380.345490,272.675018 380.343811,275.838776 380.339264,279.002502 
	C380.338074,279.834991 380.315308,280.667480 380.317566,281.499939 
	C380.331390,286.546509 376.306702,285.610687 373.854462,285.058411 
	C370.095764,284.211853 363.186157,288.708984 362.942841,281.559113 
	C362.246674,261.101807 362.703308,240.605728 362.662354,220.124985 
	C362.657501,217.698166 363.650665,216.330856 366.086090,216.157455 
	C373.803558,215.607925 380.463043,215.407791 385.709381,223.796341 
	C396.191223,240.556274 408.180237,256.373596 419.865265,273.034119 
	C421.024719,270.942017 420.651642,269.161194 420.655212,267.494690 
	C420.687073,252.508621 420.819397,237.520172 420.586121,222.537674 
	C420.513885,217.897217 421.845673,215.987778 426.723877,215.938416 
	C438.358612,215.820663 438.381165,215.629745 438.363068,227.361618 
	C438.323547,253.001953 438.256592,278.642242 438.045959,304.740143 
z"/>
<path fill="#000000" opacity="1.000000" stroke="none" 
	d="
M65.070198,238.267426 
	C74.803024,220.071396 92.263535,214.137619 111.473801,217.012482 
	C129.146149,219.657211 142.031174,233.086960 145.342178,251.208862 
	C148.265076,267.206451 145.334167,281.843811 133.949066,293.830688 
	C121.682137,306.746002 106.205864,308.954407 89.752258,304.509491 
	C73.321098,300.070648 64.331383,288.226746 60.733715,272.083038 
	C58.153141,260.503357 59.524170,249.265884 65.070198,238.267426 
M77.384590,264.122223 
	C77.786736,266.242889 78.025360,268.410522 78.618713,270.476257 
	C81.523804,280.590210 87.773636,287.582764 98.360413,289.398804 
	C108.498100,291.137817 117.178978,288.014526 123.276123,279.330353 
	C127.440208,273.399414 129.019577,266.680267 128.640701,259.471802 
	C127.609192,239.846542 110.188980,227.619873 93.190216,235.033920 
	C81.095192,240.309174 77.473000,250.939011 77.384590,264.122223 
z"/>
<path fill="#000000" opacity="1.000000" stroke="none" 
	d="
M208.743317,231.598816 
	C213.214676,245.306747 210.150024,260.383759 197.700455,266.211761 
	C194.517319,267.701874 195.628006,269.765594 196.664032,271.984802 
	C201.031403,281.339905 205.364227,290.711212 209.685883,300.087585 
	C212.255722,305.663147 211.848389,306.416046 205.715302,306.318054 
	C190.019562,306.067200 194.396973,308.707581 187.889496,295.122742 
	C184.652527,288.365265 181.427399,281.591278 178.542572,274.680481 
	C177.059311,271.127258 174.767593,270.153717 171.182602,270.271301 
	C168.217331,270.368500 167.449661,271.615356 167.641449,274.290710 
	C168.297821,283.446899 167.555069,292.601257 167.544403,301.755554 
	C167.540298,305.276794 166.380936,306.446960 162.935837,306.382721 
	C147.488220,306.094604 149.898972,308.215332 149.727936,293.602142 
	C149.591446,281.940704 149.845688,270.273438 149.613968,258.614990 
	C149.528763,254.327820 150.812134,252.671371 155.274628,252.780960 
	C164.597366,253.009903 173.939575,252.984573 183.258698,252.647232 
	C190.312531,252.391907 194.040756,247.302826 192.525528,240.819260 
	C191.513428,236.488510 187.033035,233.506927 180.746155,233.389328 
	C172.584763,233.236649 164.408463,233.086273 156.258392,233.419342 
	C151.382721,233.618591 149.303955,232.329758 149.611755,227.060944 
	C150.222870,216.599899 147.139771,215.923401 160.847488,216.074692 
	C171.146927,216.188339 181.548782,215.118744 191.679733,217.743195 
	C199.229019,219.698837 205.462616,223.591934 208.743317,231.598816 
z"/>
<path fill="#000000" opacity="1.000000" stroke="none" 
	d="
M245.599777,283.379395 
	C242.997879,280.609283 241.435181,277.343323 237.954163,275.236938 
	C229.509430,282.615753 223.361160,292.219086 215.062714,299.757843 
	C213.137939,298.137756 213.731857,296.355194 213.728943,294.809967 
	C213.683426,270.670319 213.823517,246.529327 213.589722,222.391861 
	C213.541473,217.409866 215.526245,216.094788 220.003845,215.984833 
	C232.006058,215.690109 232.016327,215.576401 232.043823,227.359680 
	C232.065002,236.433884 232.048050,245.508179 233.219254,254.958633 
	C235.198349,252.617218 237.213440,250.305161 239.150192,247.929245 
	C246.721848,238.640564 254.352737,229.397949 261.772736,219.989258 
	C263.949158,217.229462 266.450562,215.867706 269.864929,216.040283 
	C274.932556,216.296448 280.109741,215.208496 284.958923,216.864868 
	C285.714142,219.450638 284.003967,220.588104 282.907471,221.945770 
	C273.078888,234.115112 263.317871,246.341415 253.307632,258.359985 
	C250.802902,261.367218 251.244980,263.348755 253.583755,266.054108 
	C263.163330,277.135193 272.605042,288.336212 282.016418,299.561035 
	C283.439514,301.258301 285.546204,302.667603 285.521851,306.184784 
	C278.588226,306.413818 271.714661,306.686676 264.845886,305.950165 
	C263.170380,305.770477 262.286713,303.935699 261.243378,302.653107 
	C256.096619,296.326111 250.962570,289.988739 245.599777,283.379395 
z"/>
<path fill="#000000" opacity="1.000000" stroke="none" 
	d="
M338.142822,247.966553 
	C345.589935,267.198364 352.892853,286.072113 360.477753,305.674591 
	C354.215088,306.759155 348.806732,306.559631 343.444733,306.003571 
	C341.349670,305.786285 341.083649,303.431793 340.480164,301.744476 
	C336.165863,289.682129 331.881683,277.609039 327.576782,265.543335 
	C326.751190,263.229279 325.876465,260.932770 324.551453,257.349091 
	C321.496185,265.961151 318.851959,273.390961 316.224762,280.826782 
	C313.675720,288.041199 311.046417,295.229645 308.653809,302.495819 
	C307.718079,305.337677 306.115662,306.562592 303.169464,306.356964 
	C298.748322,306.048309 294.253754,306.905853 288.782623,305.492096 
	C300.366547,275.576569 311.810791,246.021729 323.255035,216.466904 
	C323.978271,216.494751 324.701538,216.522598 325.424805,216.550446 
	C330.331482,226.588226 333.653961,237.323334 338.142822,247.966553 
z"/>
<path fill="#000000" opacity="1.000000" stroke="none" 
	d="
M111.303642,264.141327 
	C109.207832,269.125122 105.612122,271.092804 100.785683,270.030914 
	C96.777817,269.149109 94.551888,266.117554 94.302734,262.123535 
	C94.055923,258.166992 95.783173,255.030975 99.640640,253.397217 
	C106.163368,250.634659 111.946213,255.743729 111.303642,264.141327 
z"/>
</svg>